<svg data-name="Layer 1" xmlns="http://www.w3.org/2000/svg" viewBox="0 0 60 60" width="60" height="60"><g data-name="sapphire-icons/filter-switches"><path d="M48 9.43A2.57 2.57 0 0150.57 12v36A2.57 2.57 0 0148 50.57H12A2.57 2.57 0 019.43 48V12A2.57 2.57 0 0112 9.43zm-9 23.14A6.43 6.43 0 1045.43 39 6.43 6.43 0 0039 32.57zm-18-18A6.43 6.43 0 1027.43 21 6.43 6.43 0 0021 14.57z" fill="#ededef" fill-rule="evenodd"/><path data-name="Shape" d="M39 31.29a7.71 7.71 0 11-7.61 9H19.71a1.29 1.29 0 010-2.58h11.68A7.72 7.72 0 0139 31.29zm0 2.57A5.14 5.14 0 1044.14 39 5.14 5.14 0 0039 33.86zM21 13.29a7.72 7.72 0 017.61 6.42h11.68a1.29 1.29 0 01.15 2.57H28.61a7.71 7.71 0 11-7.61-9zm0 2.57A5.14 5.14 0 1026.14 21 5.14 5.14 0 0021 15.86z" fill="#ce7273"/><path d="M9.43 3h41.14A6.43 6.43 0 0157 9.43v41.14A6.43 6.43 0 0150.57 57H9.43A6.43 6.43 0 013 50.57V9.43A6.43 6.43 0 019.43 3zm0 2.57a3.86 3.86 0 00-3.86 3.86v41.14a3.86 3.86 0 003.86 3.86h41.14a3.86 3.86 0 003.86-3.86V9.43a3.86 3.86 0 00-3.86-3.86z" fill="#ad1415"/></g></svg>