<svg width="130" height="37" viewBox="0 0 130 37" xmlns="http://www.w3.org/2000/svg"><g fill="#fff" fill-rule="nonzero"><path d="M9.894 30.431h1.538l.757 5.467H10.85l-.114-1.148H9.028l-.552 1.148h-1.43l2.848-5.467zm.735 3.255l-.106-1.058c-.03-.342-.046-.941-.046-.941h-.016s-.222.59-.382.941l-.521 1.064 1.07-.006zM16.068 34.266c.357.317.816.493 1.293.497.262 0 .658-.114.658-.481 0-.574-2.05-.72-2.05-2.235 0-1.08 1.025-1.708 2.036-1.708 1.287 0 1.867.637 1.867.637l-.719.986a2.02 2.02 0 00-1.17-.39c-.268 0-.683.139-.683.475 0 .605 2.05.697 2.05 2.235 0 .941-.854 1.708-2.035 1.708-1.4 0-2.067-.78-2.067-.78l.82-.944zM22.642 30.431h1.537l.758 5.467h-1.339l-.114-1.148h-1.709l-.551 1.148h-1.43l2.848-5.467zm.734 3.255l-.108-1.065c-.03-.341-.046-.941-.046-.941h-.015s-.222.596-.39.941l-.512 1.065h1.071zM26.251 33.853l.666-3.417h1.34l-.675 3.461c-.014.07-.021.142-.022.214 0 .436.305.666.804.666.59 0 1.003-.306 1.117-.88l.674-3.46h1.339l-.683 3.498c-.246 1.232-1.18 2.067-2.496 2.067-1.141 0-2.113-.59-2.113-1.7 0-.15.018-.301.05-.449zM35.442 30.339c1.46 0 2.111.79 2.111.79l-.757.918c-.371-.3-.83-.47-1.308-.483-1.218 0-1.88 1.049-1.88 1.915 0 .704.406 1.293 1.272 1.293.825 0 1.599-.65 1.599-.65l.52 1.063c-.62.51-1.394.796-2.196.812-1.6 0-2.58-1.003-2.58-2.428a3.246 3.246 0 013.219-3.23zM39.15 30.431h3.417l-.222 1.15H40.26l-.192.994h1.66l-.228 1.148h-1.66l-.2 1.034h2.196l-.222 1.148H38.08zM46.358 30.431h1.339l-.842 4.326h2.236l-.234 1.148h-3.564zM52.471 30.431h1.538l.758 5.467h-1.339l-.114-1.148h-1.709l-.55 1.148h-1.431l2.847-5.467zm.735 3.255l-.108-1.065c-.03-.341-.046-.941-.046-.941h-.015s-.222.596-.39.941l-.52 1.065h1.079zM56.901 30.431h1.76c.323-.01.646.031.956.123.521.153.876.636.866 1.179a1.496 1.496 0 01-.854 1.293v.016c.475.17.66.613.66 1.048 0 .873-.583 1.454-1.341 1.692a2.75 2.75 0 01-.872.123h-2.24l1.065-5.474zm1.3 4.326a.683.683 0 00.712-.704c0-.246-.153-.429-.481-.429h-.812l-.222 1.133h.803zm.314-2.206a.593.593 0 00.591-.606c0-.207-.114-.359-.422-.359h-.664l-.191.97.686-.005zM61.927 34.266c.357.317.816.494 1.293.497.26 0 .658-.114.658-.481 0-.574-2.05-.72-2.05-2.235 0-1.08 1.025-1.708 2.036-1.708 1.286 0 1.867.637 1.867.637l-.719.986a2.02 2.02 0 00-1.172-.39c-.266 0-.673.139-.673.475 0 .605 2.058.697 2.058 2.235 0 .941-.854 1.708-2.034 1.708-1.403 0-2.067-.78-2.067-.78l.803-.944zM71.89 30.339c1.462 0 2.11.79 2.11.79l-.756.918a2.18 2.18 0 00-1.31-.483c-1.216 0-1.88 1.049-1.88 1.915 0 .704.406 1.293 1.272 1.293.827 0 1.599-.65 1.599-.65l.531 1.069c-.62.509-1.394.795-2.197.811-1.6 0-2.58-1.003-2.58-2.427a3.246 3.246 0 013.21-3.236zM77.817 30.339c1.563 0 2.581 1.004 2.581 2.392 0 1.768-1.563 3.268-3.215 3.268-1.57 0-2.572-1.025-2.572-2.443 0-1.74 1.53-3.217 3.206-3.217zm-.618 4.442c.895 0 1.814-.855 1.814-1.96 0-.75-.499-1.249-1.21-1.249-.919 0-1.814.843-1.814 1.915 0 .764.497 1.285 1.21 1.285v.009zM82.484 30.431h1.463l.358 2.313c.055.352.093.902.093.902h.015s.268-.543.46-.902l1.246-2.313h1.471l-.62 5.467h-1.317l.314-2.465c.053-.414.171-.918.171-.918h-.015s-.29.581-.482.918l-.888 1.585h-1.164l-.276-1.585c-.06-.342-.115-.933-.115-.933h-.005a9.15 9.15 0 01-.17.933l-.643 2.465h-1.348l1.452-5.467zM89.608 30.431h2.089c.287-.007.572.052.834.171.512.244.796.75.796 1.386a2.236 2.236 0 01-1.256 2.05c-.263.122-.55.185-.84.184h-1.025l-.33 1.691h-1.34l1.072-5.482zm1.476 2.634a.793.793 0 00.45-.114.998.998 0 00.416-.842c0-.323-.185-.528-.552-.528h-.673l-.29 1.484h.649zM95.995 30.431h1.537l.759 5.467h-1.34l-.116-1.148h-1.708l-.55 1.148h-1.431l2.849-5.467zm.736 3.255l-.107-1.065c-.031-.341-.046-.941-.046-.941h-.016s-.215.596-.386.948l-.52 1.064 1.075-.006zM100.425 30.431h1.301l1.025 2.563a7.7 7.7 0 01.275.932h.016s.054-.589.123-.932l.497-2.563h1.34l-1.065 5.467h-1.293l-1.025-2.549a8.463 8.463 0 01-.284-.934h-.015s-.046.589-.115.934l-.497 2.549h-1.34l1.057-5.467zM107.165 33.662l-1.139-3.23h1.447l.367 1.316c.1.376.171.79.171.79h.015s.236-.407.482-.79l.834-1.317h1.607l-2.463 3.285-.422 2.189h-1.34l.441-2.243zM76.628 15.824h-10.54v11.052h-4.544V.706h16.639v3.672H66.11v7.79h10.523l-.005 3.656zm13.53 11.07a6.695 6.695 0 01-.496-1.811 6.778 6.778 0 01-5.107 2.17c-1.948 0-3.554-.565-4.784-1.675a5.352 5.352 0 01-1.844-4.134c0-2.067.768-3.673 2.306-4.766 1.537-1.093 3.74-1.657 6.61-1.657h2.683V13.74c0-1.008-.274-1.811-.837-2.426-.564-.615-1.418-.905-2.58-.905-.99 0-1.81.256-2.443.751a2.316 2.316 0 00-.956 1.896h-4.373a4.88 4.88 0 011.059-2.99 7.13 7.13 0 012.887-2.186c1.286-.54 2.67-.807 4.065-.786 2.272 0 4.1.581 5.45 1.726 1.35 1.144 2.05 2.75 2.084 4.834v8.78c0 1.743.239 3.144.734 4.186v.308h-4.458v-.035zm-4.8-3.149a4.915 4.915 0 002.442-.632 4.329 4.329 0 001.726-1.691v-3.673h-2.358c-1.623 0-2.835.273-3.655.837a2.733 2.733 0 00-1.23 2.392c0 .837.273 1.503.837 1.998.563.496 1.298.77 2.238.77zM96.256 2.357a2.363 2.363 0 01.632-1.69C97.316.204 97.93 0 98.716 0s1.401.222 1.828.666c.434.454.668 1.064.65 1.691a2.294 2.294 0 01-.65 1.657c-.427.445-1.042.667-1.828.667s-1.4-.222-1.828-.667a2.354 2.354 0 01-.632-1.651v-.006zm4.647 24.531H96.53V7.436h4.373v19.452zm12.727-15.46a10.116 10.116 0 00-1.777-.136c-1.999 0-3.348.768-4.049 2.306v13.307h-4.373V7.431h4.168l.103 2.17c1.059-1.692 2.511-2.529 4.39-2.529a4.1 4.1 0 011.555.257l-.017 4.1zm7.687 9.208l3.963-13.205h4.647l-7.739 22.413c-1.179 3.28-3.194 4.902-6.047 4.902a7.597 7.597 0 01-2.101-.324v-3.4l.82.052c1.11 0 1.93-.205 2.494-.598.563-.393.99-1.077 1.315-2.016l.632-1.674-6.833-19.355h4.72l4.129 13.205zM20.238 2.585h-8.963v24.308h-2.21V2.585H.098V.723h20.141v1.862zm3.849 24.667a8.391 8.391 0 01-7.62-4.63c-.75-1.451-1.11-3.091-1.11-4.902v-.769a11.379 11.379 0 011.094-5.056 8.642 8.642 0 013.023-3.536 7.501 7.501 0 014.203-1.282c2.357 0 4.236.803 5.62 2.426 1.384 1.623 2.084 3.81 2.084 6.611v1.213H17.493v.41c0 2.204.632 4.049 1.896 5.518 1.264 1.469 2.853 2.203 4.766 2.203a6.862 6.862 0 003.04-.632 6.946 6.946 0 002.41-2.015l1.349 1.025c-1.558 2.272-3.847 3.41-6.867 3.416zm-.393-18.347a5.357 5.357 0 00-4.083 1.777c-1.11 1.179-1.777 2.784-2.016 4.783h11.668v-.24c-.069-1.861-.598-3.399-1.606-4.56-1.008-1.162-2.328-1.76-3.968-1.76h.005zM45.03 21.94a3.097 3.097 0 00-1.281-2.58c-.854-.648-2.152-1.16-3.878-1.52-1.725-.358-3.058-.785-4.014-1.264-.957-.478-1.657-1.059-2.118-1.742a4.315 4.315 0 01-.7-2.477c0-1.537.648-2.802 1.93-3.81 1.28-1.007 2.92-1.503 4.92-1.503 2.169 0 3.911.53 5.227 1.606 1.315 1.076 1.964 2.477 1.964 4.202h-2.152c0-1.144-.479-2.084-1.435-2.835-.957-.752-2.153-1.133-3.61-1.133-1.418 0-2.545.308-3.4.94-.853.632-1.28 1.452-1.28 2.46 0 .973.358 1.725 1.076 2.254.717.53 2.015 1.025 3.895 1.47 1.879.444 3.297.922 4.236 1.417a5.552 5.552 0 012.101 1.811c.462.7.684 1.572.684 2.58 0 1.64-.667 2.955-1.982 3.946-1.315.99-3.058 1.469-5.193 1.469-2.272 0-4.1-.547-5.518-1.64-1.418-1.093-2.118-2.477-2.118-4.168h2.152c.086 1.264.615 2.238 1.589 2.938.974.7 2.272 1.06 3.878 1.06 1.503 0 2.716-.325 3.638-.992.923-.666 1.384-1.48 1.384-2.489h.005zm8.132-19.491v4.988h4.031v1.76h-4.031v12.983c0 1.076.188 1.879.58 2.408.393.53 1.042.786 1.948.786a13.837 13.837 0 001.742-.188l.086 1.743c-.564.205-1.333.307-2.306.307-1.47 0-2.546-.427-3.212-1.281-.666-.854-1.008-2.118-1.008-3.793V9.18h-3.587v-1.76h3.587V2.431h2.17v.017z"/></g></svg>