<svg data-name="Layer 1" xmlns="http://www.w3.org/2000/svg" width="60" height="60" viewBox="0 0 60 60"><g data-name="sapphire-icons/megaphone"><path d="M32.25 55.88A1.12 1.12 0 0131.12 57h-2.84a5.61 5.61 0 01-5-3.11l-6.36-12.66a14.62 14.62 0 01.7-29.23H39a10.12 10.12 0 008.1-4l2-2.7A5.63 5.63 0 0153.62 3h2.26A1.12 1.12 0 0157 4.12v45a1.12 1.12 0 01-1.12 1.13h-2.26a5.63 5.63 0 01-4.5-2.25l-2-2.7a10.12 10.12 0 00-8.1-4h-6.77zm-7-3a3.37 3.37 0 003 1.87H30v-13.5H19.45zM39 39a12.36 12.36 0 019.9 5l2 2.7a3.38 3.38 0 002.72 1.3h1.13V5.25h-1.13a3.38 3.38 0 00-2.7 1.35l-2 2.7A12.36 12.36 0 0139 14.25H17.62A12.38 12.38 0 0017.3 39H39z" fill="#ad1415"/><path d="M17.62 17.62H39a2.26 2.26 0 012.25 2.26v13.5A2.24 2.24 0 0139 35.62H17.62a9 9 0 010-18z" fill="#ededef" fill-rule="evenodd"/><path data-name="Shape" d="M45.75 17.62a1.13 1.13 0 011.12 1V34.5a1.13 1.13 0 01-2.25.13V18.75a1.14 1.14 0 011.13-1.13zM17.62 21a1.12 1.12 0 011.12 1v9.13a1.12 1.12 0 01-2.24.14v-9.15A1.12 1.12 0 0117.62 21zm5.63 0a1.13 1.13 0 011.13 1.12v9a1.13 1.13 0 11-2.26 0v-9A1.13 1.13 0 0123.25 21z" fill="#ce7273"/></g></svg>