<svg data-name="Layer 1" xmlns="http://www.w3.org/2000/svg" width="60" height="60" viewBox="0 0 60 60"><g data-name="sapphire-icons/monitor"><path d="M20.67 54.5a1.17 1.17 0 110-2.33h3.82l1.56-4.67H7.83A5.83 5.83 0 012 41.67V11.33A5.83 5.83 0 017.83 5.5h44.34A5.83 5.83 0 0158 11.33v30.34a5.83 5.83 0 01-5.83 5.83H34l1.56 4.67h3.82a1.17 1.17 0 011.16 1v.13a1.17 1.17 0 01-1.17 1.17zm10.82-7h-3L27 52.17h6.1zM52.17 7.83H7.83a3.5 3.5 0 00-3.5 3.5v30.34a3.5 3.5 0 003.5 3.5h44.34a3.5 3.5 0 003.5-3.5V11.33a3.5 3.5 0 00-3.5-3.5z" fill="#ad1415"/><path d="M10.17 11.33h39.66a2.34 2.34 0 012.34 2.34v25.66a2.34 2.34 0 01-2.34 2.34H10.17a2.34 2.34 0 01-2.34-2.34V13.67a2.34 2.34 0 012.34-2.34z" fill="#ededef" fill-rule="evenodd"/><path data-name="Shape" d="M16 32.33a1.17 1.17 0 011.16 1V37a1.17 1.17 0 01-2.33.14V33.5A1.18 1.18 0 0116 32.33zm7-7a1.17 1.17 0 011.16 1V37a1.17 1.17 0 01-2.33.14V26.5A1.18 1.18 0 0123 25.33zm7 2.34a1.17 1.17 0 011.16 1V37a1.17 1.17 0 01-2.33.14v-8.31A1.17 1.17 0 0130 27.67zm7-7a1.17 1.17 0 011.16 1V37a1.17 1.17 0 01-2.33.14V21.83A1.17 1.17 0 0137 20.67zm7-5.84A1.18 1.18 0 0145.17 16v21a1.17 1.17 0 01-2.34 0V16A1.18 1.18 0 0144 14.83z" fill="#ce7273"/></g></svg>