<svg data-name="Layer 1" xmlns="http://www.w3.org/2000/svg" width="60" height="60" viewBox="0 0 60 60"><g data-name="sapphire-icons/rocket"><path d="M30 48a1.13 1.13 0 011.12 1v6.89a1.13 1.13 0 01-2.25.13v-6.89A1.12 1.12 0 0130 48zm-6.75 0a1.13 1.13 0 011.12 1v3.5a1.13 1.13 0 01-2.25.13v-3.5A1.12 1.12 0 0123.25 48zm13.5 0a1.13 1.13 0 011.13 1.13v3.37a1.13 1.13 0 11-2.25 0v-3.37A1.12 1.12 0 0136.75 48zM30.7 3.25l7.88 6.29a10.14 10.14 0 013.8 7.91v3.94a3.37 3.37 0 001 2.38l11.15 11.16A5.75 5.75 0 0156.1 38l.9 5.32a1.12 1.12 0 01-1.1 1.31H4.13A1.12 1.12 0 013 43.32L3.9 38a5.75 5.75 0 011.57-3.06l11.17-11.17a3.38 3.38 0 001-2.38v-3.94a10.13 10.13 0 013.79-7.91l7.87-6.29a1.11 1.11 0 011.4 0zM30 5.57l-7.17 5.73a7.88 7.88 0 00-2.95 6.15v3.94a5.63 5.63 0 01-1.65 4L7.07 36.53a3.35 3.35 0 00-1 1.83l-.67 4h12.22V32.25a1.13 1.13 0 011-1.12h.13a1.13 1.13 0 011.12 1v10.25h20.25V32.25a1.13 1.13 0 011-1.12h.13a1.13 1.13 0 011.12 1v10.25h12.18l-.67-4a3.35 3.35 0 00-1-1.83L41.77 25.36a5.62 5.62 0 01-1.64-4v-3.91a7.89 7.89 0 00-3-6.15z" fill="#ad1415"/><path data-name="Shape" d="M30 9.75L35.13 14a4.47 4.47 0 011.62 3.45v19.3A2.25 2.25 0 0134.5 39h-9a2.25 2.25 0 01-2.25-2.25V17.48A4.47 4.47 0 0124.87 14zm0 6.75a2.25 2.25 0 102.25 2.25A2.25 2.25 0 0030 16.5z" fill="#ededef" fill-rule="evenodd"/><path d="M30 22.13a3.38 3.38 0 10-3.37-3.38A3.39 3.39 0 0030 22.13zm0-2.25a1.13 1.13 0 111.13-1.13A1.13 1.13 0 0130 19.88z" fill="#ce7273"/></g></svg>