<svg data-name="Layer 1" xmlns="http://www.w3.org/2000/svg" width="60" height="60" viewBox="0 0 60 60"><g data-name="sapphire-icons/shield"><path d="M30 3q14.28 0 21.85 3.48a1.13 1.13 0 01.65 1v16.91a34.88 34.88 0 01-20 31.52l-2.07 1a1.08 1.08 0 01-1 0l-2.07-1A34.88 34.88 0 017.5 24.39V7.5a1.13 1.13 0 01.65-1Q15.72 3 30 3zm0 2.25q-13.21 0-20.25 3v16.14a32.62 32.62 0 0018.66 29.49l1.59.75 1.59-.75a32.62 32.62 0 0018.66-29.49V8.23Q43.22 5.26 30 5.25z" fill="#ad1415"/><path d="M30 8.62a58.58 58.58 0 0116.87 2.25v13.28a28.77 28.77 0 01-16.72 26l-.15.07-.15-.07a28.77 28.77 0 01-16.72-26V10.87A58.58 58.58 0 0130 8.62zm1.17 8.12a1.62 1.62 0 00-2.32.73L23.5 28.16a2.56 2.56 0 00-.25 1.09 2.15 2.15 0 002 2.25H28v5.61a1.93 1.93 0 00.87 1.65 1.62 1.62 0 002.28-.76l5.35-10.66a2.56 2.56 0 00.25-1.09 2.15 2.15 0 00-2-2.25H32v-5.61a1.93 1.93 0 00-.83-1.65z" fill="#ededef" fill-rule="evenodd"/><path data-name="Combined-Shape" d="M34.71 22.87a3.28 3.28 0 013.16 3.38 3.5 3.5 0 01-.37 1.59l-5.35 10.69a2.74 2.74 0 01-3.91 1.19 3.08 3.08 0 01-1.41-2.61v-4.48h-1.54a3.28 3.28 0 01-3.16-3.38 3.5 3.5 0 01.37-1.59L27.85 17a2.74 2.74 0 013.91-1.19 3.08 3.08 0 011.41 2.61v4.48zM30.92 24v-5.61a.81.81 0 00-.35-.69c-.24-.16-.54-.06-.71.28l-5.35 10.69a1.24 1.24 0 00-.13.58 1 1 0 00.91 1.13H28a1.12 1.12 0 011.12 1.12v5.61a.81.81 0 00.35.69c.24.16.54.06.71-.28l5.35-10.69a1.24 1.24 0 00.13-.58 1 1 0 00-.91-1.13H32A1.12 1.12 0 0130.92 24z" fill="#ce7273"/></g></svg>