<svg width="60" height="60" viewBox="0 0 48 48" xmlns="http://www.w3.org/2000/svg"><g fill="none" fill-rule="evenodd"><path d="M5 6h38a5 5 0 015 5v26a5 5 0 01-5 5H5a5 5 0 01-5-5V11a5 5 0 015-5zm0 2a3 3 0 00-3 3v26a3 3 0 003 3h38a3 3 0 003-3V11a3 3 0 00-3-3H5z" fill="#ad1415" fill-rule="nonzero"/><path d="M41 11a2 2 0 012 2v22a2 2 0 01-2 2H7a2 2 0 01-2-2V13a2 2 0 012-2h34zm-21 7v12l10-6-10-6z" fill="#ededef"/><path d="M38 45a1 1 0 010 2H10a1 1 0 010-2h28zM20.514 17.143l10 6a1 1 0 010 1.714l-10 6A1 1 0 0119 30V18a1 1 0 011.514-.857zM21 19.766v8.468L28.056 24 21 19.766z" fill="#ad1415" fill-rule="nonzero"/></g></svg>